<svg width="144" height="48" viewBox="0 0 144 48" fill="none" xmlns="http://www.w3.org/2000/svg">
<g clip-path="url(#clip0_1077_428)">
<path d="M132.533 3.39297e-05H11.4737C11.0325 3.39297e-05 10.5965 3.39298e-05 10.1564 0.00243393C9.78796 0.00483393 9.42249 0.0118059 9.05054 0.0176739C8.24249 0.0271561 7.43635 0.0980455 6.63911 0.229726C5.84299 0.364273 5.07181 0.617933 4.35165 0.982126C3.63237 1.3494 2.97514 1.82664 2.40381 2.39652C1.82948 2.9648 1.35074 3.62165 0.98598 4.34183C0.620217 5.06056 0.366595 5.83076 0.233875 6.62581C0.0998928 7.41986 0.0277959 8.22306 0.018231 9.02821C0.00706378 9.39613 0.00588447 9.76527 0 10.1332V37.8704C0.00588447 38.243 0.00706378 38.6039 0.018231 38.9766C0.0277988 39.7817 0.0998957 40.5849 0.233875 41.3789C0.366228 42.1744 0.619865 42.9451 0.98598 43.6641C1.35057 44.3819 1.82939 45.0361 2.40381 45.6012C2.97298 46.1737 3.63063 46.6512 4.35165 47.0157C5.0718 47.3808 5.8429 47.636 6.63911 47.7726C7.43648 47.9033 8.24254 47.9742 9.05054 47.9848C9.42249 47.993 9.78796 47.9976 10.1564 47.9976C10.5965 48 11.0325 48 11.4737 48H132.533C132.965 48 133.405 48 133.837 47.9976C134.204 47.9976 134.58 47.993 134.947 47.9848C135.753 47.9747 136.558 47.9038 137.353 47.7726C138.152 47.6351 138.926 47.3799 139.65 47.0157C140.37 46.651 141.027 46.1735 141.596 45.6012C142.169 45.0339 142.648 44.3802 143.018 43.6641C143.381 42.9445 143.632 42.174 143.763 41.3789C143.897 40.5848 143.971 39.7818 143.986 38.9766C143.991 38.6039 143.991 38.243 143.991 37.8704C144 37.4344 144 37.0008 144 36.5578V11.4434C144 11.0039 144 10.568 143.991 10.1332C143.991 9.76527 143.991 9.39613 143.986 9.02816C143.971 8.22294 143.897 7.41992 143.763 6.62576C143.632 5.83117 143.381 5.06104 143.018 4.34178C142.275 2.89827 141.097 1.72326 139.65 0.982018C138.926 0.618715 138.152 0.365122 137.353 0.229618C136.558 0.0973573 135.753 0.0264432 134.947 0.0175059C134.58 0.0116499 134.204 0.00461793 133.837 0.00227793C133.405 -0.00012207 132.965 -0.00012207 132.533 -0.00012207V3.39297e-05Z" fill="#111111"/>
<path d="M10.1622 46.9501C9.79559 46.9501 9.4378 46.9454 9.07403 46.9372C8.32046 46.9274 7.56865 46.862 6.82477 46.7415C6.13114 46.6224 5.45919 46.4008 4.8311 46.084C4.20877 45.7699 3.64115 45.358 3.14999 44.8641C2.65173 44.376 2.2369 43.8099 1.92194 43.1883C1.60352 42.5626 1.38315 41.8919 1.26852 41.1996C1.14472 40.4558 1.07774 39.7036 1.06815 38.9496C1.06053 38.6966 1.05054 37.8539 1.05054 37.8539V10.1333C1.05054 10.1333 1.06117 9.30357 1.06821 9.05981C1.07739 8.30703 1.14398 7.55603 1.26741 6.81332C1.38226 6.11915 1.6028 5.44655 1.92139 4.8188C2.23519 4.19758 2.64771 3.63108 3.14298 3.14126C3.63769 2.64679 4.20712 2.23277 4.83051 1.9143C5.45716 1.59856 6.12783 1.37853 6.82006 1.26157C7.56639 1.13985 8.32081 1.07404 9.07699 1.0647L10.1628 1.05005H133.831L134.93 1.06529C135.679 1.07417 136.427 1.13939 137.166 1.2604C137.866 1.37882 138.543 1.60039 139.177 1.91782C140.426 2.55963 141.442 3.57504 142.083 4.82173C142.397 5.44514 142.614 6.11226 142.727 6.80044C142.852 7.54924 142.922 8.30614 142.936 9.06509C142.94 9.40493 142.94 9.76997 142.94 10.1333C142.949 10.5833 142.949 11.0116 142.949 11.4434V36.5578C142.949 36.9938 142.949 37.4192 142.94 37.8481C142.94 38.2383 142.94 38.5958 142.935 38.9637C142.921 39.7091 142.852 40.4525 142.73 41.1879C142.617 41.8852 142.398 42.5611 142.08 43.1919C141.763 43.8068 141.35 44.368 140.858 44.8547C140.366 45.3513 139.797 45.7656 139.174 46.0817C138.542 46.4009 137.865 46.6233 137.166 46.7415C136.423 46.8626 135.671 46.9281 134.917 46.9372C134.565 46.9454 134.196 46.9501 133.837 46.9501L132.533 46.9524L10.1622 46.9501Z" fill="#111111"/>
<path d="M50.9052 32.5676H45.2092L43.8413 36.5953H41.4287L46.8239 21.6937H49.3305L54.7257 36.5953H52.2719L50.9052 32.5676ZM45.7991 30.709H50.3142L48.0884 24.1723H48.0261L45.7991 30.709Z" fill="white"/>
<path d="M66.3774 31.1637C66.3774 34.5399 64.5653 36.709 61.8307 36.709C61.138 36.7452 60.4491 36.5861 59.8428 36.2499C59.2366 35.9137 58.7375 35.4141 58.4028 34.8082H58.351V40.1895H56.1147V25.7309H58.2794V27.5379H58.3205C58.6706 26.935 59.1781 26.438 59.789 26.0997C60.3999 25.7615 61.0912 25.5948 61.7896 25.6172C64.5547 25.6172 66.3774 27.7969 66.3774 31.1637ZM64.0788 31.1637C64.0788 28.9641 62.9389 27.518 61.1996 27.518C59.491 27.518 58.3416 28.9946 58.3416 31.1637C58.3416 33.3528 59.491 34.8188 61.1996 34.8188C62.9389 34.8188 64.0788 33.3833 64.0788 31.1637Z" fill="white"/>
<path d="M78.3688 31.1637C78.3688 34.5399 76.5567 36.709 73.8221 36.709C73.1294 36.7452 72.4405 36.586 71.8342 36.2499C71.228 35.9137 70.7289 35.4141 70.3942 34.8082H70.3424V40.1895H68.1061V25.7309H70.2707V27.5379H70.3119C70.662 26.935 71.1695 26.4379 71.7803 26.0997C72.3912 25.7615 73.0826 25.5948 73.781 25.6172C76.5461 25.6172 78.3688 27.7969 78.3688 31.1637ZM76.0702 31.1637C76.0702 28.9641 74.9303 27.518 73.191 27.518C71.4824 27.518 70.333 28.9946 70.333 31.1637C70.333 33.3528 71.4824 34.8188 73.191 34.8188C74.9303 34.8188 76.0702 33.3833 76.0702 31.1637H76.0702Z" fill="white"/>
<path d="M86.2941 32.4434C86.4598 33.9212 87.8994 34.8914 89.8666 34.8914C91.7516 34.8914 93.1077 33.9211 93.1077 32.5887C93.1077 31.432 92.2898 30.7395 90.3532 30.2649L88.4165 29.7996C85.6725 29.1387 84.3986 27.859 84.3986 25.7824C84.3986 23.2113 86.6455 21.4453 89.8361 21.4453C92.9937 21.4453 95.1584 23.2113 95.2313 25.7824H92.9738C92.8386 24.2953 91.6059 23.3977 89.8043 23.3977C88.0028 23.3977 86.7701 24.3059 86.7701 25.6277C86.7701 26.6813 87.5574 27.3012 89.4835 27.7757L91.1299 28.1789C94.1959 28.9019 95.4698 30.1301 95.4698 32.3097C95.4698 35.0976 93.2429 36.8437 89.7009 36.8437C86.3869 36.8437 84.1494 35.1386 84.0049 32.4433L86.2941 32.4434Z" fill="white"/>
<path d="M100.296 23.1598V25.7309H102.368V27.4969H100.296V33.4864C100.296 34.4168 100.711 34.8504 101.622 34.8504C101.868 34.8461 102.113 34.8289 102.357 34.7988V36.5543C101.948 36.6306 101.532 36.6651 101.115 36.6574C98.9096 36.6574 98.0493 35.8312 98.0493 33.7242V27.4969H96.4652V25.7309H98.0493V23.1598H100.296Z" fill="white"/>
<path d="M103.568 31.1637C103.568 27.7453 105.587 25.5973 108.735 25.5973C111.894 25.5973 113.903 27.7453 113.903 31.1637C113.903 34.5914 111.905 36.7301 108.735 36.7301C105.567 36.7301 103.568 34.5914 103.568 31.1637ZM111.625 31.1637C111.625 28.8188 110.547 27.4348 108.735 27.4348C106.923 27.4348 105.847 28.8293 105.847 31.1637C105.847 33.518 106.923 34.8914 108.735 34.8914C110.547 34.8914 111.625 33.518 111.625 31.1637H111.625Z" fill="white"/>
<path d="M115.747 25.7309H117.88V27.5801H117.932C118.076 27.0026 118.416 26.4922 118.893 26.1347C119.37 25.7773 119.956 25.5945 120.553 25.6172C120.81 25.6163 121.067 25.6443 121.319 25.7005V27.7864C120.993 27.6873 120.654 27.6417 120.314 27.6516C119.989 27.6385 119.665 27.6956 119.365 27.8191C119.064 27.9425 118.794 28.1294 118.572 28.3669C118.351 28.6044 118.184 28.8868 118.082 29.1948C117.98 29.5028 117.947 29.8291 117.984 30.1512V36.5954H115.747L115.747 25.7309Z" fill="white"/>
<path d="M131.63 33.4043C131.329 35.3766 129.403 36.7301 126.938 36.7301C123.769 36.7301 121.802 34.6125 121.802 31.2153C121.802 27.8074 123.78 25.5973 126.844 25.5973C129.859 25.5973 131.754 27.6621 131.754 30.9563V31.7203H124.059V31.8551C124.024 32.2549 124.074 32.6577 124.207 33.0367C124.339 33.4158 124.551 33.7623 124.828 34.0534C125.105 34.3444 125.442 34.5733 125.814 34.7249C126.187 34.8765 126.588 34.9472 126.99 34.9324C127.519 34.9818 128.049 34.8598 128.502 34.5844C128.956 34.3091 129.308 33.8952 129.506 33.4043L131.63 33.4043ZM124.07 30.1617H129.517C129.537 29.8022 129.482 29.4425 129.356 29.105C129.23 28.7676 129.036 28.4597 128.785 28.2008C128.534 27.9419 128.232 27.7375 127.898 27.6004C127.564 27.4633 127.205 27.3966 126.844 27.4043C126.48 27.4022 126.119 27.4719 125.782 27.6096C125.445 27.7473 125.139 27.9502 124.881 28.2065C124.623 28.4629 124.419 28.7677 124.279 29.1033C124.14 29.4388 124.069 29.7986 124.07 30.1618V30.1617Z" fill="white"/>
<path d="M45.5189 10.4772C45.9877 10.4437 46.4582 10.5143 46.8964 10.684C47.3345 10.8538 47.7294 11.1183 48.0527 11.4587C48.3759 11.799 48.6193 12.2067 48.7654 12.6522C48.9115 13.0977 48.9566 13.57 48.8975 14.035C48.8975 16.3225 47.6577 17.6374 45.5189 17.6374H42.9253V10.4772H45.5189ZM44.0405 16.6248H45.3943C45.7293 16.6448 46.0646 16.59 46.3757 16.4645C46.6868 16.339 46.966 16.1458 47.1928 15.8991C47.4196 15.6525 47.5884 15.3585 47.6869 15.0385C47.7855 14.7186 47.8112 14.3807 47.7623 14.0496C47.8076 13.7198 47.7793 13.3841 47.6793 13.0665C47.5792 12.7489 47.41 12.4573 47.1837 12.2126C46.9574 11.9679 46.6796 11.7761 46.3702 11.651C46.0609 11.5259 45.7276 11.4706 45.3943 11.4891H44.0405V16.6248Z" fill="white"/>
<path d="M50.1572 14.9332C50.1232 14.5781 50.1639 14.2198 50.2768 13.8813C50.3898 13.5428 50.5724 13.2316 50.813 12.9676C51.0536 12.7037 51.3469 12.4927 51.674 12.3484C52.0011 12.2041 52.3549 12.1295 52.7126 12.1295C53.0704 12.1295 53.4241 12.2041 53.7513 12.3484C54.0784 12.4927 54.3717 12.7037 54.6123 12.9676C54.8529 13.2316 55.0355 13.5428 55.1484 13.8813C55.2614 14.2198 55.3021 14.5781 55.268 14.9332C55.3027 15.2886 55.2625 15.6474 55.1499 15.9864C55.0372 16.3255 54.8547 16.6373 54.6141 16.9018C54.3734 17.1662 54.0799 17.3776 53.7524 17.5223C53.425 17.6669 53.0708 17.7416 52.7126 17.7416C52.3545 17.7416 52.0003 17.6669 51.6728 17.5223C51.3454 17.3776 51.0519 17.1662 50.8112 16.9018C50.5705 16.6373 50.388 16.3255 50.2754 15.9864C50.1628 15.6474 50.1225 15.2886 50.1572 14.9332ZM54.1681 14.9332C54.1681 13.7619 53.6404 13.0769 52.7144 13.0769C51.7848 13.0769 51.2619 13.7619 51.2619 14.9332C51.2619 16.1138 51.7849 16.7935 52.7144 16.7935C53.6404 16.7935 54.1681 16.1091 54.1681 14.9332H54.1681Z" fill="white"/>
<path d="M62.0616 17.6373H60.9523L59.8324 13.6576H59.7478L58.6325 17.6373H57.5337L56.0401 12.2338H57.1248L58.0955 16.357H58.1754L59.2894 12.2338H60.3154L61.4294 16.357H61.514L62.48 12.2338H63.5494L62.0616 17.6373Z" fill="white"/>
<path d="M64.8057 12.2338H65.8351V13.0922H65.915C66.0506 12.7839 66.2792 12.5254 66.5691 12.3528C66.8589 12.1803 67.1956 12.1022 67.5321 12.1295C67.7957 12.1097 68.0604 12.1493 68.3067 12.2455C68.5529 12.3416 68.7742 12.4917 68.9543 12.6847C69.1345 12.8777 69.2687 13.1087 69.3472 13.3605C69.4257 13.6122 69.4463 13.8784 69.4076 14.1392V17.6372H68.3382V14.407C68.3382 13.5387 67.9598 13.1068 67.1689 13.1068C66.9899 13.0985 66.8112 13.1289 66.6451 13.1959C66.4789 13.2629 66.3293 13.3649 66.2064 13.495C66.0835 13.625 65.9903 13.78 65.9331 13.9494C65.8759 14.1188 65.8561 14.2984 65.8751 14.4761V17.6373H64.8057L64.8057 12.2338Z" fill="white"/>
<path d="M71.1116 10.1244H72.181V17.6373H71.1116V10.1244Z" fill="white"/>
<path d="M73.6676 14.9331C73.6335 14.578 73.6743 14.2197 73.7872 13.8812C73.9002 13.5427 74.0828 13.2315 74.3235 12.9675C74.5641 12.7035 74.8574 12.4926 75.1846 12.3483C75.5117 12.204 75.8655 12.1294 76.2233 12.1294C76.581 12.1294 76.9348 12.204 77.262 12.3483C77.5891 12.4926 77.8824 12.7035 78.123 12.9675C78.3637 13.2315 78.5463 13.5427 78.6593 13.8812C78.7722 14.2197 78.813 14.578 78.7789 14.9331C78.8136 15.2886 78.7733 15.6474 78.6607 15.9864C78.548 16.3255 78.3655 16.6372 78.1248 16.9017C77.8841 17.1662 77.5906 17.3776 77.2631 17.5222C76.9356 17.6668 76.5814 17.7416 76.2233 17.7416C75.8651 17.7416 75.5109 17.6668 75.1834 17.5222C74.8559 17.3776 74.5624 17.1662 74.3217 16.9017C74.0811 16.6372 73.8985 16.3255 73.7859 15.9864C73.6732 15.6474 73.6329 15.2886 73.6676 14.9331ZM77.6784 14.9331C77.6784 13.7619 77.1507 13.0769 76.2247 13.0769C75.2952 13.0769 74.7723 13.7619 74.7723 14.9332C74.7723 16.1138 75.2952 16.7935 76.2247 16.7935C77.1508 16.7935 77.6784 16.1091 77.6784 14.9331H77.6784Z" fill="white"/>
<path d="M79.9048 16.1092C79.9048 15.1365 80.631 14.5758 81.9202 14.4961L83.388 14.4117V13.9453C83.388 13.3746 83.0096 13.0524 82.2786 13.0524C81.6816 13.0524 81.268 13.2709 81.1493 13.653H80.114C80.2233 12.7248 81.0988 12.1295 82.328 12.1295C83.6865 12.1295 84.4527 12.8039 84.4527 13.9453V17.6373H83.4232V16.878H83.3386C83.1669 17.1503 82.9257 17.3724 82.6398 17.5215C82.3538 17.6705 82.0333 17.7412 81.711 17.7264C81.4835 17.7499 81.2536 17.7257 81.0361 17.6553C80.8186 17.5849 80.6183 17.4698 80.4481 17.3174C80.2779 17.165 80.1417 16.9788 80.0481 16.7707C79.9545 16.5626 79.9057 16.3373 79.9048 16.1092ZM83.388 15.6475V15.1957L82.0647 15.2801C81.3185 15.3299 80.9801 15.583 80.9801 16.0594C80.9801 16.5457 81.4031 16.8287 81.9849 16.8287C82.1553 16.8459 82.3275 16.8288 82.4912 16.7783C82.6548 16.7277 82.8066 16.6449 82.9375 16.5347C83.0684 16.4245 83.1758 16.2892 83.2532 16.1367C83.3305 15.9843 83.3764 15.8179 83.388 15.6475Z" fill="white"/>
<path d="M85.8582 14.9332C85.8582 13.2258 86.7384 12.1441 88.1074 12.1441C88.4461 12.1286 88.7822 12.2095 89.0764 12.3773C89.3707 12.5452 89.6109 12.7931 89.7691 13.0921H89.849V10.1244H90.9184V17.6373H89.8937V16.7836H89.8091C89.6387 17.0806 89.39 17.3254 89.0901 17.4916C88.7901 17.6577 88.4503 17.7389 88.1074 17.7263C86.729 17.7264 85.8582 16.6447 85.8582 14.9332ZM86.9628 14.9332C86.9628 16.0793 87.5046 16.7689 88.4107 16.7689C89.312 16.7689 89.869 16.0693 89.869 14.9379C89.869 13.8117 89.3061 13.1021 88.4107 13.1021C87.5104 13.1021 86.9628 13.7965 86.9628 14.9332H86.9628Z" fill="white"/>
<path d="M95.3429 14.9332C95.3088 14.5781 95.3496 14.2198 95.4625 13.8813C95.5754 13.5428 95.758 13.2316 95.9986 12.9676C96.2392 12.7037 96.5325 12.4927 96.8596 12.3484C97.1868 12.2041 97.5406 12.1295 97.8983 12.1295C98.256 12.1295 98.6098 12.2041 98.9369 12.3484C99.2641 12.4927 99.5573 12.7037 99.7979 12.9676C100.039 13.2316 100.221 13.5428 100.334 13.8813C100.447 14.2198 100.488 14.5781 100.454 14.9332C100.488 15.2886 100.448 15.6474 100.336 15.9864C100.223 16.3255 100.04 16.6373 99.7997 16.9018C99.559 17.1662 99.2656 17.3776 98.9381 17.5223C98.6106 17.6669 98.2564 17.7416 97.8983 17.7416C97.5401 17.7416 97.1859 17.6669 96.8585 17.5223C96.531 17.3776 96.2375 17.1662 95.9969 16.9018C95.7562 16.6373 95.5737 16.3255 95.4611 15.9864C95.3484 15.6474 95.3082 15.2886 95.3429 14.9332ZM99.3537 14.9332C99.3537 13.7619 98.8261 13.0769 97.9001 13.0769C96.9705 13.0769 96.4476 13.7619 96.4476 14.9332C96.4476 16.1138 96.9705 16.7935 97.9001 16.7935C98.8261 16.7935 99.3537 16.1091 99.3537 14.9332Z" fill="white"/>
<path d="M101.889 12.2338H102.918V13.0922H102.998C103.133 12.7839 103.362 12.5254 103.652 12.3528C103.942 12.1803 104.278 12.1022 104.615 12.1295C104.879 12.1097 105.143 12.1493 105.39 12.2455C105.636 12.3416 105.857 12.4917 106.037 12.6847C106.217 12.8777 106.352 13.1087 106.43 13.3605C106.509 13.6122 106.529 13.8784 106.491 14.1392V17.6372H105.421V14.407C105.421 13.5387 105.043 13.1068 104.252 13.1068C104.073 13.0985 103.894 13.1289 103.728 13.1959C103.562 13.2629 103.412 13.3649 103.289 13.495C103.166 13.625 103.073 13.78 103.016 13.9494C102.959 14.1188 102.939 14.2984 102.958 14.4761V17.6373H101.889V12.2338Z" fill="white"/>
<path d="M112.533 10.8884V12.2583H113.707V13.1566H112.533V15.9351C112.533 16.5011 112.767 16.749 113.299 16.749C113.436 16.7485 113.572 16.7403 113.707 16.7244V17.6126C113.515 17.6469 113.321 17.6651 113.126 17.6671C111.936 17.6671 111.463 17.2499 111.463 16.2081V13.1565H110.602V12.2583H111.463V10.8884H112.533Z" fill="white"/>
<path d="M115.168 10.1244H116.228V13.1021H116.313C116.455 12.7909 116.69 12.531 116.985 12.3578C117.281 12.1846 117.623 12.1065 117.965 12.1342C118.227 12.1199 118.489 12.1636 118.733 12.262C118.976 12.3605 119.195 12.5113 119.373 12.7037C119.551 12.8961 119.685 13.1254 119.764 13.3751C119.843 13.6249 119.866 13.889 119.831 14.1486V17.6373H118.76V14.4117C118.76 13.5486 118.357 13.1115 117.602 13.1115C117.418 13.0965 117.233 13.1217 117.06 13.1853C116.887 13.249 116.73 13.3496 116.6 13.4801C116.47 13.6105 116.37 13.7678 116.308 13.9407C116.245 14.1137 116.221 14.2982 116.237 14.4814V17.6373H115.168L115.168 10.1244Z" fill="white"/>
<path d="M126.066 16.1783C125.921 16.6722 125.606 17.0993 125.177 17.3851C124.748 17.6709 124.232 17.7971 123.718 17.7416C123.361 17.751 123.007 17.6828 122.679 17.5418C122.351 17.4007 122.058 17.1902 121.819 16.9249C121.581 16.6595 121.404 16.3456 121.3 16.005C121.195 15.6645 121.167 15.3053 121.215 14.9525C121.168 14.5987 121.197 14.2388 121.301 13.8971C121.405 13.5555 121.582 13.2402 121.819 12.9725C122.056 12.7048 122.347 12.491 122.674 12.3456C123.001 12.2001 123.356 12.1264 123.714 12.1295C125.221 12.1295 126.131 13.1567 126.131 14.8535V15.2256H122.305V15.2854C122.288 15.4836 122.313 15.6832 122.378 15.8713C122.443 16.0594 122.547 16.2319 122.683 16.3776C122.819 16.5234 122.984 16.6392 123.167 16.7177C123.35 16.7962 123.548 16.8356 123.748 16.8334C124.004 16.864 124.263 16.818 124.492 16.7014C124.722 16.5847 124.911 16.4027 125.037 16.1783L126.066 16.1783ZM122.305 14.4369H125.042C125.055 14.2556 125.03 14.0734 124.969 13.9021C124.908 13.7309 124.811 13.5743 124.686 13.4425C124.56 13.3106 124.408 13.2065 124.24 13.1367C124.071 13.0668 123.89 13.0329 123.708 13.0371C123.523 13.0348 123.339 13.0694 123.168 13.139C122.997 13.2085 122.841 13.3115 122.71 13.442C122.58 13.5724 122.476 13.7277 122.407 13.8985C122.337 14.0694 122.302 14.2525 122.305 14.4369H122.305Z" fill="white"/>
<path d="M24.7973 24.3489C24.8081 23.5143 25.0298 22.6959 25.4418 21.9699C25.8538 21.244 26.4428 20.634 27.1539 20.1969C26.7021 19.5517 26.1062 19.0208 25.4134 18.6462C24.7205 18.2716 23.9499 18.0638 23.1627 18.0392C21.4835 17.8629 19.8555 19.044 18.9998 19.044C18.1275 19.044 16.81 18.0567 15.3913 18.0859C14.4736 18.1155 13.5793 18.3824 12.7954 18.8604C12.0115 19.3385 11.3649 20.0114 10.9184 20.8137C8.98439 24.1622 10.427 29.0832 12.2796 31.7898C13.2065 33.1152 14.2898 34.5956 15.7072 34.5431C17.0943 34.4856 17.6123 33.6586 19.2866 33.6586C20.9454 33.6586 21.4314 34.5431 22.8776 34.5097C24.366 34.4856 25.3038 33.1785 26.1981 31.8406C26.8641 30.8962 27.3766 29.8525 27.7166 28.7481C26.8518 28.3824 26.1139 27.7702 25.5948 26.9879C25.0757 26.2056 24.7983 25.2878 24.7973 24.3489Z" fill="white"/>
<path d="M22.0657 16.4906C22.8772 15.5164 23.277 14.2642 23.1802 13C21.9404 13.1302 20.7951 13.7228 19.9726 14.6596C19.5705 15.1173 19.2625 15.6497 19.0663 16.2265C18.87 16.8033 18.7894 17.413 18.8289 18.021C19.4491 18.0274 20.0626 17.893 20.6232 17.6279C21.1839 17.3628 21.6771 16.9739 22.0657 16.4906Z" fill="white"/>
</g>
<defs>
<clipPath id="clip0_1077_428">
<rect width="144" height="48" fill="white"/>
</clipPath>
</defs>
</svg>
