<svg width="162" height="48" viewBox="0 0 162 48" fill="none" xmlns="http://www.w3.org/2000/svg">
<g clip-path="url(#clip0_1077_459)">
<path fill-rule="evenodd" clip-rule="evenodd" d="M156 48H6.02693C2.70524 48 0 45.2948 0 42V6C0 2.69327 2.70524 0 6.02693 0H156C159.319 0 162.027 2.69327 162.027 6V42C162.027 45.2948 159.319 48 156 48Z" fill="#111111"/>
<path fill-rule="evenodd" clip-rule="evenodd" d="M156 0.960599C158.786 0.960599 161.066 3.22594 161.066 6V42C161.066 44.7741 158.801 47.0394 156 47.0394H6.02693C3.2409 47.0394 0.960599 44.7741 0.960599 42V6C0.960599 3.22594 3.22594 0.960599 6.02693 0.960599H156ZM156 0H6.02693C2.70524 0 0 2.70524 0 6V42C0 45.3067 2.70524 48 6.02693 48H156C159.319 48 162.027 45.3067 162.027 42V6C162.027 2.70524 159.319 0 156 0Z" fill="#111111"/>
<path d="M68.136 29.752C65.784 29.752 63.867 31.54 63.867 34.005C63.867 36.454 65.784 38.258 68.136 38.258C70.488 38.258 72.405 36.454 72.405 34.005C72.405 31.54 70.488 29.752 68.136 29.752ZM68.136 36.583C66.847 36.583 65.735 35.52 65.735 34.005C65.735 32.474 66.847 31.427 68.136 31.427C69.425 31.427 70.536 32.474 70.536 34.005C70.536 35.519 69.425 36.583 68.136 36.583ZM58.822 29.752C56.47 29.752 54.553 31.54 54.553 34.005C54.553 36.454 56.47 38.258 58.822 38.258C61.174 38.258 63.091 36.454 63.091 34.005C63.092 31.54 61.174 29.752 58.822 29.752ZM58.822 36.583C57.533 36.583 56.422 35.52 56.422 34.005C56.422 32.474 57.534 31.427 58.822 31.427C60.111 31.427 61.222 32.474 61.222 34.005C61.223 35.519 60.111 36.583 58.822 36.583ZM47.744 31.057V32.861H52.062C51.933 33.876 51.595 34.617 51.079 35.133C50.451 35.761 49.468 36.454 47.744 36.454C45.086 36.454 43.008 34.311 43.008 31.653C43.008 28.995 45.086 26.852 47.744 26.852C49.178 26.852 50.225 27.416 50.998 28.141L52.271 26.868C51.192 25.837 49.758 25.047 47.744 25.047C44.103 25.047 41.042 28.011 41.042 31.652C41.042 35.293 44.103 38.257 47.744 38.257C49.709 38.257 51.192 37.613 52.352 36.404C53.544 35.212 53.915 33.536 53.915 32.183C53.915 31.764 53.883 31.377 53.818 31.055H47.744V31.057ZM93.052 32.458C92.698 31.507 91.618 29.751 89.411 29.751C87.22 29.751 85.4 31.475 85.4 34.004C85.4 36.388 87.204 38.257 89.621 38.257C91.57 38.257 92.698 37.065 93.165 36.372L91.715 35.405C91.232 36.114 90.571 36.581 89.621 36.581C88.67 36.581 87.994 36.146 87.559 35.292L93.246 32.94L93.052 32.458ZM87.252 33.876C87.204 32.233 88.525 31.395 89.475 31.395C90.216 31.395 90.844 31.765 91.054 32.297L87.252 33.876ZM82.628 38H84.497V25.499H82.628V38ZM79.567 30.702H79.503C79.084 30.203 78.279 29.751 77.264 29.751C75.137 29.751 73.188 31.62 73.188 34.02C73.188 36.404 75.137 38.257 77.264 38.257C78.279 38.257 79.084 37.806 79.503 37.29H79.567V37.902C79.567 39.529 78.697 40.399 77.295 40.399C76.151 40.399 75.442 39.577 75.152 38.885L73.525 39.562C73.992 40.69 75.233 42.075 77.295 42.075C79.486 42.075 81.339 40.786 81.339 37.645V30.009H79.567V30.702V30.702ZM77.425 36.583C76.136 36.583 75.057 35.504 75.057 34.021C75.057 32.523 76.136 31.427 77.425 31.427C78.698 31.427 79.696 32.522 79.696 34.021C79.696 35.503 78.698 36.583 77.425 36.583ZM101.806 25.499H97.335V38H99.2V33.264H101.805C103.873 33.264 105.906 31.767 105.906 29.382C105.906 26.997 103.874 25.499 101.806 25.499ZM101.854 31.524H99.2V27.239H101.854C103.249 27.239 104.041 28.394 104.041 29.382C104.041 30.35 103.249 31.524 101.854 31.524ZM113.386 29.729C112.035 29.729 110.636 30.324 110.057 31.643L111.714 32.335C112.068 31.643 112.727 31.418 113.419 31.418C114.384 31.418 115.365 31.997 115.381 33.026V33.155C115.043 32.962 114.319 32.672 113.435 32.672C111.65 32.672 109.832 33.653 109.832 35.487C109.832 37.16 111.296 38.237 112.936 38.237C114.191 38.237 114.882 37.674 115.316 37.015H115.38V37.98H117.181V33.187C117.181 30.967 115.525 29.729 113.386 29.729ZM113.16 36.58C112.549 36.58 111.696 36.274 111.696 35.519C111.696 34.554 112.758 34.184 113.674 34.184C114.494 34.184 114.88 34.361 115.379 34.602C115.235 35.76 114.238 36.58 113.16 36.58ZM123.743 30.002L121.604 35.422H121.54L119.321 30.002H117.311L120.64 37.577L118.742 41.791H120.688L125.819 30.002H123.743V30.002ZM106.936 38H108.802V25.499H106.936V38Z" fill="white"/>
<path fill-rule="evenodd" clip-rule="evenodd" d="M88.3308 14.6688C87.6228 15.3972 86.7432 15.7596 85.6908 15.7596C84.6384 15.7596 83.7588 15.396 83.052 14.6688C82.344 13.9416 81.9912 13.0512 81.9912 11.9988C81.9912 10.9464 82.344 10.056 83.052 9.32882C83.7588 8.60042 84.6384 8.23682 85.6908 8.23682C86.7372 8.23682 87.6156 8.60282 88.326 9.33362C89.0364 10.0644 89.3916 10.9524 89.3916 11.9988C89.3916 13.0524 89.0376 13.9428 88.3308 14.6688ZM83.7348 14.0664C84.2676 14.6064 84.9192 14.8752 85.6908 14.8752C86.4624 14.8752 87.114 14.6052 87.6468 14.0664C88.1796 13.5264 88.4472 12.8376 88.4472 12C88.4472 11.1624 88.1796 10.4724 87.6468 9.93362C87.1152 9.39362 86.4624 9.12482 85.6908 9.12482C84.9192 9.12482 84.2676 9.39482 83.7348 9.93362C83.2032 10.4736 82.9356 11.1624 82.9356 12C82.9356 12.8376 83.2032 13.5264 83.7348 14.0664Z" fill="white"/>
<path d="M56.9016 12.2916C56.9016 13.2972 56.604 14.0976 56.0076 14.6952C55.3308 15.4056 54.4476 15.7608 53.3628 15.7608C52.3236 15.7608 51.4392 15.4008 50.7132 14.6808C49.986 13.9596 49.6224 13.0668 49.6224 12.0012C49.6224 10.9344 49.986 10.0416 50.7132 9.32161C51.4392 8.60041 52.3236 8.24041 53.3628 8.24041C53.8788 8.24041 54.372 8.34121 54.84 8.54161C55.3092 8.74321 55.6848 9.01081 55.9656 9.34561L55.3332 9.97921C54.8568 9.40921 54.2004 9.12481 53.3616 9.12481C52.6032 9.12481 51.948 9.39121 51.3948 9.92401C50.8428 10.4568 50.5668 11.148 50.5668 12C50.5668 12.852 50.8428 13.5432 51.396 14.0772C51.9492 14.61 52.6044 14.8764 53.3628 14.8764C54.1668 14.8764 54.8376 14.6088 55.374 14.0724C55.722 13.7232 55.9236 13.2372 55.9776 12.6144H53.3628V11.748H56.8512C56.886 11.9364 56.9016 12.1176 56.9016 12.2916Z" fill="white"/>
<path d="M62.4336 9.28442H59.1552V11.5668H62.112V12.432H59.1552V14.7144H62.4336V15.6H58.23V8.40002H62.4336V9.28442Z" fill="white"/>
<path d="M65.4084 15.6H66.3336V9.28442H68.3448V8.40002H63.3972V9.28442H65.4084V15.6Z" fill="white"/>
<path d="M71.9256 15.6V8.40002H72.8508V15.6H71.9256Z" fill="white"/>
<path d="M76.0272 15.6H76.9524V9.28442H78.9636V8.40002H74.016V9.28442H76.0272V15.6Z" fill="white"/>
<path d="M90.69 8.40002V15.6H91.6128V11.1144L91.5732 9.72722H91.6128L95.274 15.6H96.24V8.40002H95.3148V12.6144L95.3544 14.0016H95.3148L91.8156 8.40002H90.69Z" fill="white"/>
<path fill-rule="evenodd" clip-rule="evenodd" d="M88.3308 14.6688C87.6228 15.3972 86.7432 15.7596 85.6908 15.7596C84.6384 15.7596 83.7588 15.396 83.052 14.6688C82.344 13.9416 81.9912 13.0512 81.9912 11.9988C81.9912 10.9464 82.344 10.056 83.052 9.32882C83.7588 8.60042 84.6384 8.23682 85.6908 8.23682C86.7372 8.23682 87.6156 8.60282 88.326 9.33362C89.0364 10.0644 89.3916 10.9524 89.3916 11.9988C89.3916 13.0524 89.0376 13.9428 88.3308 14.6688ZM83.7348 14.0664C84.2676 14.6064 84.9192 14.8752 85.6908 14.8752C86.4624 14.8752 87.114 14.6052 87.6468 14.0664C88.1796 13.5264 88.4472 12.8376 88.4472 12C88.4472 11.1624 88.1796 10.4724 87.6468 9.93362C87.1152 9.39362 86.4624 9.12482 85.6908 9.12482C84.9192 9.12482 84.2676 9.39482 83.7348 9.93362C83.2032 10.4736 82.9356 11.1624 82.9356 12C82.9356 12.8376 83.2032 13.5264 83.7348 14.0664Z" stroke="white" stroke-width="0.2" stroke-miterlimit="10"/>
<path d="M56.9016 12.2916C56.9016 13.2972 56.604 14.0976 56.0076 14.6952C55.3308 15.4056 54.4476 15.7608 53.3628 15.7608C52.3236 15.7608 51.4392 15.4008 50.7132 14.6808C49.986 13.9596 49.6224 13.0668 49.6224 12.0012C49.6224 10.9344 49.986 10.0416 50.7132 9.32161C51.4392 8.60041 52.3236 8.24041 53.3628 8.24041C53.8788 8.24041 54.372 8.34121 54.84 8.54161C55.3092 8.74321 55.6848 9.01081 55.9656 9.34561L55.3332 9.97921C54.8568 9.40921 54.2004 9.12481 53.3616 9.12481C52.6032 9.12481 51.948 9.39121 51.3948 9.92401C50.8428 10.4568 50.5668 11.148 50.5668 12C50.5668 12.852 50.8428 13.5432 51.396 14.0772C51.9492 14.61 52.6044 14.8764 53.3628 14.8764C54.1668 14.8764 54.8376 14.6088 55.374 14.0724C55.722 13.7232 55.9236 13.2372 55.9776 12.6144H53.3628V11.748H56.8512C56.886 11.9364 56.9016 12.1176 56.9016 12.2916Z" stroke="white" stroke-width="0.2" stroke-miterlimit="10"/>
<path d="M62.4336 9.28442H59.1552V11.5668H62.112V12.432H59.1552V14.7144H62.4336V15.6H58.23V8.40002H62.4336V9.28442Z" stroke="white" stroke-width="0.2" stroke-miterlimit="10"/>
<path d="M65.4084 15.6H66.3336V9.28442H68.3448V8.40002H63.3972V9.28442H65.4084V15.6Z" stroke="white" stroke-width="0.2" stroke-miterlimit="10"/>
<path d="M71.9256 15.6V8.40002H72.8508V15.6H71.9256Z" stroke="white" stroke-width="0.2" stroke-miterlimit="10"/>
<path d="M76.0272 15.6H76.9524V9.28442H78.9636V8.40002H74.016V9.28442H76.0272V15.6Z" stroke="white" stroke-width="0.2" stroke-miterlimit="10"/>
<path d="M90.69 8.40002V15.6H91.6128V11.1144L91.5732 9.72722H91.6128L95.274 15.6H96.24V8.40002H95.3148V12.6144L95.3544 14.0016H95.3148L91.8156 8.40002H90.69Z" stroke="white" stroke-width="0.2" stroke-miterlimit="10"/>
<path d="M10.435 11.3977C10.144 11.7057 9.97198 12.1837 9.97198 12.8027V34.9187C9.97198 35.5387 10.144 36.0157 10.435 36.3237L10.509 36.3957L22.898 24.0067V23.8607V23.7147L10.509 11.3247L10.435 11.3977Z" fill="url(#paint0_linear_1077_459)"/>
<path d="M27.028 28.1387L22.899 24.0077V23.8617V23.7157L27.029 19.5857L27.122 19.6387L32.015 22.4187C33.413 23.2127 33.413 24.5117 32.015 25.3067L27.122 28.0867L27.028 28.1387Z" fill="url(#paint1_linear_1077_459)"/>
<path d="M27.122 28.0847L22.899 23.8607L10.435 36.3237C10.896 36.8117 11.656 36.8717 12.513 36.3847L27.122 28.0847Z" fill="url(#paint2_linear_1077_459)"/>
<path d="M27.122 19.6367L12.514 11.3367C11.657 10.8497 10.897 10.9107 10.436 11.3977L22.899 23.8607L27.122 19.6367Z" fill="url(#paint3_linear_1077_459)"/>
<path opacity="0.2" d="M27.029 27.9917L12.514 36.2387C11.702 36.6997 10.976 36.6697 10.51 36.2497L10.435 36.3247L10.509 36.3967C10.975 36.8167 11.701 36.8477 12.513 36.3857L27.121 28.0857L27.029 27.9917Z" fill="black"/>
<path opacity="0.12" d="M10.435 36.1777C10.144 35.8697 9.97198 35.3917 9.97198 34.7727V34.9187C9.97198 35.5377 10.144 36.0157 10.435 36.3237L10.51 36.2487L10.435 36.1777Z" fill="black"/>
<path opacity="0.12" d="M32.015 25.1587L27.029 27.9917L27.122 28.0847L32.015 25.3047C32.714 24.9077 33.063 24.3847 33.063 23.8617C33.004 24.3347 32.648 24.7987 32.015 25.1587Z" fill="black"/>
<path opacity="0.25" d="M12.513 11.4827L32.014 22.5627C32.648 22.9227 33.003 23.3867 33.062 23.8607C33.062 23.3377 32.713 22.8137 32.014 22.4167L12.513 11.3367C11.115 10.5427 9.97198 11.2017 9.97198 12.8027V12.9497C9.97198 11.3487 11.116 10.6887 12.513 11.4827Z" fill="white"/>
</g>
<defs>
<linearGradient id="paint0_linear_1077_459" x1="21.7996" y1="12.5695" x2="5.01719" y2="29.3519" gradientUnits="userSpaceOnUse">
<stop stop-color="#00A0FF"/>
<stop offset="0.0066" stop-color="#00A1FF"/>
<stop offset="0.2601" stop-color="#00BEFF"/>
<stop offset="0.5122" stop-color="#00D2FF"/>
<stop offset="0.7604" stop-color="#00DFFF"/>
<stop offset="1" stop-color="#00E3FF"/>
</linearGradient>
<linearGradient id="paint1_linear_1077_459" x1="33.8343" y1="23.8612" x2="9.63739" y2="23.8612" gradientUnits="userSpaceOnUse">
<stop stop-color="#FFE000"/>
<stop offset="0.4087" stop-color="#FFBD00"/>
<stop offset="0.7754" stop-color="#FFA500"/>
<stop offset="1" stop-color="#FF9C00"/>
</linearGradient>
<linearGradient id="paint2_linear_1077_459" x1="24.8269" y1="26.1559" x2="2.0686" y2="48.9142" gradientUnits="userSpaceOnUse">
<stop stop-color="#FF3A44"/>
<stop offset="1" stop-color="#C31162"/>
</linearGradient>
<linearGradient id="paint3_linear_1077_459" x1="7.29723" y1="4.03597" x2="17.4598" y2="14.1985" gradientUnits="userSpaceOnUse">
<stop stop-color="#32A071"/>
<stop offset="0.0685" stop-color="#2DA771"/>
<stop offset="0.4762" stop-color="#15CF74"/>
<stop offset="0.8009" stop-color="#06E775"/>
<stop offset="1" stop-color="#00F076"/>
</linearGradient>
<clipPath id="clip0_1077_459">
<rect width="162" height="48" fill="white"/>
</clipPath>
</defs>
</svg>
